<svg width="348" height="27" viewBox="0 0 348 27" fill="none" xmlns="http://www.w3.org/2000/svg">
<path d="M7.32617 7.58203C7.63086 6.97266 8.49414 6.99805 8.77344 7.58203L10.4492 10.959L14.1562 11.4922C14.8164 11.5938 15.0703 12.4062 14.5879 12.8887L11.9219 15.5039L12.5566 19.1855C12.6582 19.8457 11.9473 20.3535 11.3633 20.0488L8.0625 18.2969L4.73633 20.0488C4.15234 20.3535 3.44141 19.8457 3.54297 19.1855L4.17773 15.5039L1.51172 12.8887C1.0293 12.4062 1.2832 11.5938 1.94336 11.4922L5.67578 10.959L7.32617 7.58203ZM21.9512 7.58203C22.2559 6.97266 23.1191 6.99805 23.3984 7.58203L25.0742 10.959L28.7812 11.4922C29.4414 11.5938 29.6953 12.4062 29.2129 12.8887L26.5469 15.5039L27.1816 19.1855C27.2832 19.8457 26.5723 20.3535 25.9883 20.0488L22.6875 18.2969L19.3613 20.0488C18.7773 20.3535 18.0664 19.8457 18.168 19.1855L18.8027 15.5039L16.1367 12.8887C15.6543 12.4062 15.9082 11.5938 16.5684 11.4922L20.3008 10.959L21.9512 7.58203ZM36.5762 7.58203C36.8809 6.97266 37.7441 6.99805 38.0234 7.58203L39.6992 10.959L43.4062 11.4922C44.0664 11.5938 44.3203 12.4062 43.8379 12.8887L41.1719 15.5039L41.8066 19.1855C41.9082 19.8457 41.1973 20.3535 40.6133 20.0488L37.3125 18.2969L33.9863 20.0488C33.4023 20.3535 32.6914 19.8457 32.793 19.1855L33.4277 15.5039L30.7617 12.8887C30.2793 12.4062 30.5332 11.5938 31.1934 11.4922L34.9258 10.959L36.5762 7.58203ZM51.2012 7.58203C51.5059 6.97266 52.3691 6.99805 52.6484 7.58203L54.3242 10.959L58.0312 11.4922C58.6914 11.5938 58.9453 12.4062 58.4629 12.8887L55.7969 15.5039L56.4316 19.1855C56.5332 19.8457 55.8223 20.3535 55.2383 20.0488L51.9375 18.2969L48.6113 20.0488C48.0273 20.3535 47.3164 19.8457 47.418 19.1855L48.0527 15.5039L45.3867 12.8887C44.9043 12.4062 45.1582 11.5938 45.8184 11.4922L49.5508 10.959L51.2012 7.58203ZM65.8262 7.58203C66.1309 6.97266 66.9941 6.99805 67.2734 7.58203L68.9492 10.959L72.6562 11.4922C73.3164 11.5938 73.5703 12.4062 73.0879 12.8887L70.4219 15.5039L71.0566 19.1855C71.1582 19.8457 70.4473 20.3535 69.8633 20.0488L66.5625 18.2969L63.2363 20.0488C62.6523 20.3535 61.9414 19.8457 62.043 19.1855L62.6777 15.5039L60.0117 12.8887C59.5293 12.4062 59.7832 11.5938 60.4434 11.4922L64.1758 10.959L65.8262 7.58203Z" fill="#FFC700"/>
</svg>
