<svg width="30" height="30" viewBox="0 0 30 30" fill="none" xmlns="http://www.w3.org/2000/svg">
<path d="M19.1346 14.6068C19.2093 14.5314 19.262 14.4335 19.2794 14.3226C19.3139 14.1012 19.2063 13.8849 19.0089 13.7831L15.7475 12.0991L16.3143 8.43471C16.3482 8.21343 16.2564 8.01451 16.0589 7.91315C15.8614 7.81206 15.66 7.8891 15.5035 8.04745L12.9945 10.5857L9.62644 8.9535C9.42888 8.85172 9.1557 8.85644 8.99876 9.01505L9.00818 9.02492C8.8516 9.18344 8.83252 9.44555 8.93315 9.64551L10.5525 13.0964L8.04231 15.5964C7.88598 15.7547 7.80961 15.9586 7.90974 16.1584C8.00972 16.3582 8.18736 16.4319 8.40613 16.3977L12.0386 15.8326L13.7133 19.1453C13.8141 19.3449 14.0306 19.456 14.2493 19.4208C14.3587 19.4034 14.4564 19.3512 14.5311 19.2755C14.6077 19.1981 14.658 19.0985 14.6747 18.9909L15.2495 15.3377L18.8532 14.7512C18.9623 14.7335 19.0601 14.6823 19.1346 14.6069L19.1346 14.6068ZM16.7596 15.6903L16.2244 15.8021C15.9488 15.836 15.6907 16.0604 15.6465 16.3408L15.5747 16.7972L20.0985 21.9907C20.3483 22.2776 20.7541 22.3611 21.0917 22.1928C21.2763 22.1007 21.4674 21.9825 21.6087 21.8392C21.7962 21.649 21.954 21.3985 22.0756 21.1674C22.2626 20.8117 22.175 20.3697 21.873 20.1095L16.7596 15.6903ZM20.1148 10.3537C20.1183 10.3325 20.115 10.3109 20.1056 10.2917C20.086 10.2527 20.0447 10.2314 20.0021 10.2387L19.2981 10.3586L18.974 9.71408C18.9544 9.67522 18.9174 9.65468 18.8749 9.66207C18.8324 9.66945 18.8093 9.70538 18.8025 9.7488L18.6935 10.4453L17.9785 10.586C17.9359 10.5933 17.8934 10.6263 17.8865 10.6698L17.8891 10.6703C17.8824 10.7138 17.9089 10.7574 17.9473 10.7769L18.5919 11.1295L18.4783 11.8201C18.4715 11.8635 18.4825 11.9047 18.5208 11.9243C18.5591 11.944 18.5954 11.9346 18.6261 11.9034L19.1348 11.3852L19.7725 11.7094C19.8109 11.7289 19.8575 11.7208 19.888 11.6895C19.903 11.6741 19.9128 11.6545 19.9161 11.6333C19.9194 11.6122 19.9161 11.5906 19.9066 11.5715L19.585 10.9278L20.0868 10.4096C20.1017 10.3943 20.1115 10.3748 20.1148 10.3537ZM13.8363 8.01391C13.839 7.99636 13.8367 7.97805 13.8284 7.96145C13.8118 7.92844 13.7768 7.91038 13.7407 7.91649L13.1442 8.01809L12.8696 7.47205C12.853 7.4391 12.8217 7.42176 12.7857 7.42803C12.7497 7.43429 12.7301 7.46476 12.7244 7.50152L12.632 8.09159L12.0262 8.21083C11.9901 8.21699 11.9541 8.24494 11.9483 8.28181L11.9505 8.28225C11.9447 8.31901 11.9672 8.35591 11.9998 8.3726L12.5459 8.67131L12.4497 9.25639C12.444 9.29316 12.4532 9.32799 12.4857 9.34466C12.5182 9.36134 12.5489 9.35341 12.5749 9.32695L13.0059 8.88786L13.5462 9.16259C13.5787 9.17909 13.6182 9.17229 13.6441 9.14565C13.6567 9.13266 13.665 9.11606 13.6678 9.09816C13.6706 9.08025 13.6678 9.06191 13.6598 9.04567L13.3873 8.50039L13.8124 8.06128C13.8251 8.04836 13.8334 8.0318 13.8363 8.01391ZM8.70029 11.6762C8.69212 11.6655 8.68074 11.6575 8.66779 11.6536C8.64133 11.6461 8.61344 11.6567 8.59815 11.6804L8.3459 12.072L7.90772 11.9468C7.88128 11.9393 7.85573 11.9481 7.84053 11.9719C7.82541 11.9956 7.83188 12.0223 7.84883 12.0446L8.12178 12.4014L7.87431 12.8074C7.85902 12.8311 7.85566 12.866 7.87273 12.8884L7.87408 12.8872C7.89114 12.9095 7.9228 12.9157 7.9486 12.9058L8.39239 12.7491L8.66063 13.1054C8.67758 13.1277 8.70137 13.1403 8.72716 13.1304C8.75296 13.1205 8.76447 13.0989 8.76345 13.0706L8.74716 12.5991L9.17481 12.4333C9.20061 12.4233 9.21724 12.3974 9.21613 12.3689C9.2156 12.3552 9.21081 12.3419 9.20243 12.3309C9.19429 12.3201 9.18286 12.3122 9.16985 12.3084L8.73319 12.1824L8.71388 11.7142C8.71336 11.7005 8.70861 11.6872 8.70029 11.6762Z" fill="white"/>
</svg>
