<svg width="18" height="18" viewBox="0 0 18 18" fill="none" xmlns="http://www.w3.org/2000/svg">
<circle cx="9.00012" cy="9.00012" r="7.43504" fill="url(#paint0_linear_1212_3411)" stroke="url(#paint1_linear_1212_3411)" stroke-width="1.16628"/>
<path d="M8.87405 4.59352C8.97062 4.34613 9.3207 4.34613 9.41727 4.59352L10.3363 6.94784C10.3777 7.054 10.4772 7.12629 10.591 7.1329L13.1141 7.2794C13.3792 7.29479 13.4874 7.62774 13.2819 7.79603L11.3268 9.39758C11.2387 9.4698 11.2007 9.58676 11.2295 9.69701L11.8699 12.1419C11.9372 12.3988 11.6539 12.6046 11.4304 12.4612L9.30308 11.0967C9.20715 11.0351 9.08417 11.0351 8.98824 11.0967L6.86092 12.4612C6.63737 12.6046 6.35415 12.3988 6.42144 12.1419L7.06178 9.69701C7.09066 9.58676 7.05266 9.4698 6.96449 9.39758L5.00939 7.79603C4.80395 7.62774 4.91213 7.29479 5.17726 7.2794L7.70033 7.1329C7.81411 7.12629 7.9136 7.054 7.95504 6.94784L8.87405 4.59352Z" fill="url(#paint2_linear_1212_3411)"/>
<defs>
<linearGradient id="paint0_linear_1212_3411" x1="9.00012" y1="0.981934" x2="9.00012" y2="17.0183" gradientUnits="userSpaceOnUse">
<stop stop-color="#00B3FF"/>
<stop offset="1" stop-color="#0066FF"/>
</linearGradient>
<linearGradient id="paint1_linear_1212_3411" x1="9.00012" y1="0.981934" x2="9.00012" y2="17.0183" gradientUnits="userSpaceOnUse">
<stop stop-color="#C8E4FF"/>
<stop offset="1" stop-color="#7DB8FF"/>
</linearGradient>
<linearGradient id="paint2_linear_1212_3411" x1="9.14566" y1="3.89771" x2="9.14566" y2="13.8111" gradientUnits="userSpaceOnUse">
<stop stop-color="white"/>
<stop offset="1" stop-color="white" stop-opacity="0.7"/>
</linearGradient>
</defs>
</svg>
