<svg width="18" height="18" viewBox="0 0 18 18" fill="none" xmlns="http://www.w3.org/2000/svg">
<path d="M2.10555 3.9001L5.25501 5.99974L8.3947 1.60417C8.63545 1.26711 9.1039 1.18904 9.44095 1.42979C9.5083 1.4779 9.56717 1.53682 9.61532 1.60417L12.755 5.99974L15.9044 3.9001C16.2491 3.67034 16.7147 3.76347 16.9445 4.10812C17.0433 4.25633 17.0861 4.43487 17.0654 4.61177L15.833 15.0874C15.7885 15.4651 15.4684 15.7498 15.0881 15.7498H2.92195C2.54164 15.7498 2.22152 15.4651 2.17708 15.0874L0.944662 4.61177C0.896265 4.2004 1.19052 3.82768 1.60189 3.77928C1.7788 3.75847 1.95734 3.8013 2.10555 3.9001ZM9.00505 11.2498C9.83342 11.2498 10.505 10.5782 10.505 9.74976C10.505 8.92131 9.83342 8.24976 9.00505 8.24976C8.1766 8.24976 7.50505 8.92131 7.50505 9.74976C7.50505 10.5782 8.1766 11.2498 9.00505 11.2498Z" fill="#E5C391"/>
</svg>