<svg width="24" height="23" viewBox="0 0 24 23" fill="none" xmlns="http://www.w3.org/2000/svg">
<path d="M10.7837 16.3096L19.2837 7.80957C19.3553 7.72363 19.4162 7.62695 19.4663 7.51953C19.5164 7.41211 19.5415 7.29395 19.5415 7.16504C19.5415 6.90723 19.452 6.6888 19.2729 6.50977C19.0939 6.33073 18.8755 6.24121 18.6177 6.24121C18.4888 6.24121 18.3706 6.26628 18.2632 6.31641C18.1558 6.36654 18.0591 6.43457 17.9731 6.52051L10.1177 14.376L8.10986 12.3467C8.02393 12.2607 7.92725 12.1927 7.81982 12.1426C7.7124 12.0924 7.59424 12.0674 7.46533 12.0674C7.20752 12.0674 6.9891 12.1605 6.81006 12.3467C6.63102 12.5329 6.5415 12.7477 6.5415 12.9912C6.5415 13.1201 6.56657 13.2419 6.6167 13.3564C6.66683 13.471 6.7277 13.5713 6.79932 13.6572L9.47314 16.3096C9.55908 16.3955 9.65576 16.4635 9.76318 16.5137C9.87061 16.5638 9.98877 16.5889 10.1177 16.5889C10.2466 16.5889 10.3683 16.5638 10.4829 16.5137C10.5975 16.4635 10.6978 16.3955 10.7837 16.3096Z" fill="white"/>
</svg>