<svg width="150" height="24" viewBox="0 0 150 24" fill="none" xmlns="http://www.w3.org/2000/svg">
<path d="M8.0744 6.81818H9.61559V13.5149C9.61559 14.2275 9.44821 14.8589 9.11346 15.4091C8.77871 15.956 8.30806 16.3868 7.70153 16.7017C7.09499 17.0133 6.38406 17.169 5.56871 17.169C4.75669 17.169 4.04741 17.0133 3.44087 16.7017C2.83434 16.3868 2.3637 15.956 2.02894 15.4091C1.69419 14.8589 1.52681 14.2275 1.52681 13.5149V6.81818H3.06303V13.3906C3.06303 13.8513 3.16412 14.2607 3.3663 14.6186C3.57179 14.9766 3.8618 15.2583 4.23633 15.4638C4.61085 15.666 5.05498 15.767 5.56871 15.767C6.08576 15.767 6.53155 15.666 6.90607 15.4638C7.28391 15.2583 7.57227 14.9766 7.77113 14.6186C7.97331 14.2607 8.0744 13.8513 8.0744 13.3906V6.81818ZM11.7298 19.8636V9.36364H13.1815V10.6016H13.3058C13.3919 10.4425 13.5162 10.2585 13.6786 10.0497C13.841 9.84091 14.0664 9.65862 14.3548 9.50284C14.6431 9.34375 15.0243 9.2642 15.4982 9.2642C16.1147 9.2642 16.6649 9.41998 17.1488 9.73153C17.6327 10.0431 18.0122 10.4922 18.2873 11.0788C18.5657 11.6655 18.7049 12.3714 18.7049 13.1967C18.7049 14.022 18.5674 14.7296 18.2923 15.3196C18.0172 15.9062 17.6393 16.3587 17.1587 16.6768C16.6781 16.9917 16.1296 17.1491 15.5131 17.1491C15.0491 17.1491 14.6696 17.0713 14.3746 16.9155C14.083 16.7597 13.8543 16.5774 13.6886 16.3686C13.5228 16.1598 13.3952 15.9742 13.3058 15.8118H13.2163V19.8636H11.7298ZM13.1864 13.1818C13.1864 13.7187 13.2643 14.1894 13.4201 14.5938C13.5759 14.9981 13.8013 15.3146 14.0962 15.5433C14.3912 15.7687 14.7525 15.8814 15.18 15.8814C15.6242 15.8814 15.9954 15.7637 16.2937 15.5284C16.592 15.2898 16.8174 14.9666 16.9698 14.5589C17.1256 14.1513 17.2035 13.6922 17.2035 13.1818C17.2035 12.678 17.1272 12.2256 16.9748 11.8246C16.8256 11.4235 16.6003 11.107 16.2987 10.875C16.0004 10.643 15.6275 10.527 15.18 10.527C14.7492 10.527 14.3846 10.638 14.0863 10.8601C13.7913 11.0821 13.5676 11.392 13.4151 11.7898C13.2627 12.1875 13.1864 12.6515 13.1864 13.1818ZM23.5721 20.0227C22.9656 20.0227 22.4435 19.9432 22.006 19.7841C21.5719 19.625 21.2172 19.4145 20.9421 19.1527C20.667 18.8909 20.4615 18.6042 20.3256 18.2926L21.6033 17.7656C21.6928 17.9115 21.8121 18.0656 21.9613 18.228C22.1138 18.3937 22.3192 18.5346 22.5778 18.6506C22.8396 18.7666 23.176 18.8246 23.587 18.8246C24.1504 18.8246 24.6161 18.687 24.984 18.4119C25.3519 18.1402 25.5359 17.706 25.5359 17.1094V15.608H25.4414C25.3519 15.7704 25.2227 15.951 25.0536 16.1499C24.8879 16.3487 24.6592 16.5211 24.3675 16.6669C24.0759 16.8127 23.6964 16.8857 23.229 16.8857C22.6258 16.8857 22.0823 16.7448 21.5984 16.4631C21.1178 16.178 20.7366 15.7588 20.4549 15.2053C20.1765 14.6484 20.0373 13.964 20.0373 13.152C20.0373 12.34 20.1748 11.6439 20.4499 11.0639C20.7283 10.4839 21.1095 10.0398 21.5934 9.73153C22.0773 9.41998 22.6258 9.2642 23.239 9.2642C23.7129 9.2642 24.0958 9.34375 24.3874 9.50284C24.6791 9.65862 24.9061 9.84091 25.0685 10.0497C25.2343 10.2585 25.3619 10.4425 25.4513 10.6016H25.5607V9.36364H27.0174V17.169C27.0174 17.8253 26.8649 18.3639 26.56 18.7848C26.2551 19.2057 25.8424 19.5173 25.3221 19.7195C24.805 19.9216 24.2217 20.0227 23.5721 20.0227ZM23.5572 15.6527C23.9847 15.6527 24.346 15.5533 24.641 15.3544C24.9393 15.1522 25.1647 14.8639 25.3171 14.4893C25.4729 14.1115 25.5508 13.6591 25.5508 13.1321C25.5508 12.6184 25.4746 12.166 25.3221 11.7749C25.1696 11.3838 24.9459 11.0788 24.6509 10.8601C24.3559 10.638 23.9914 10.527 23.5572 10.527C23.1097 10.527 22.7369 10.643 22.4386 10.875C22.1403 11.1037 21.9149 11.4152 21.7624 11.8097C21.6133 12.2041 21.5387 12.6449 21.5387 13.1321C21.5387 13.6326 21.6149 14.0717 21.7674 14.4496C21.9199 14.8274 22.1452 15.1224 22.4435 15.3345C22.7451 15.5466 23.1164 15.6527 23.5572 15.6527ZM29.011 17V9.36364H30.4478V10.5767H30.5273C30.6665 10.1657 30.9118 9.84257 31.2631 9.60724C31.6178 9.36861 32.0188 9.24929 32.4663 9.24929C32.5591 9.24929 32.6684 9.2526 32.7944 9.25923C32.9237 9.26586 33.0247 9.27415 33.0977 9.28409V10.706C33.038 10.6894 32.9319 10.6712 32.7795 10.6513C32.627 10.6281 32.4746 10.6165 32.3221 10.6165C31.9708 10.6165 31.6576 10.6911 31.3825 10.8402C31.1107 10.986 30.8952 11.1899 30.7362 11.4517C30.5771 11.7102 30.4975 12.0052 30.4975 12.3366V17H29.011ZM36.538 17.169C36.0541 17.169 35.6166 17.0795 35.2255 16.9006C34.8344 16.7183 34.5245 16.4548 34.2958 16.1101C34.0704 15.7654 33.9577 15.3428 33.9577 14.8423C33.9577 14.4115 34.0406 14.0568 34.2063 13.7784C34.372 13.5 34.5958 13.2796 34.8775 13.1172C35.1592 12.9548 35.4741 12.8321 35.8221 12.7493C36.1701 12.6664 36.5247 12.6035 36.886 12.5604C37.3434 12.5073 37.7146 12.4643 37.9996 12.4311C38.2847 12.3946 38.4918 12.3366 38.6211 12.2571C38.7504 12.1776 38.815 12.0483 38.815 11.8693V11.8345C38.815 11.4003 38.6924 11.0639 38.4471 10.8253C38.2051 10.5866 37.8439 10.4673 37.3633 10.4673C36.8628 10.4673 36.4684 10.5784 36.18 10.8004C35.895 11.0192 35.6978 11.2628 35.5884 11.5312L34.1914 11.2131C34.3571 10.7491 34.5991 10.3745 34.9173 10.0895C35.2388 9.80114 35.6083 9.59233 36.0259 9.46307C36.4435 9.33049 36.8827 9.2642 37.3434 9.2642C37.6483 9.2642 37.9715 9.30066 38.3129 9.37358C38.6576 9.44318 38.979 9.57244 39.2773 9.76136C39.579 9.95028 39.8259 10.2204 40.0181 10.5717C40.2103 10.9197 40.3065 11.3722 40.3065 11.929V17H38.8548V15.956H38.7951C38.699 16.1482 38.5548 16.3371 38.3626 16.5227C38.1703 16.7083 37.9234 16.8625 37.6218 16.9851C37.3202 17.1077 36.9589 17.169 36.538 17.169ZM36.8612 15.9759C37.2721 15.9759 37.6235 15.8946 37.9151 15.7322C38.2101 15.5698 38.4338 15.3577 38.5863 15.0959C38.7421 14.8307 38.82 14.5473 38.82 14.2457V13.2614C38.7669 13.3144 38.6642 13.3641 38.5117 13.4105C38.3626 13.4536 38.1919 13.4917 37.9996 13.5249C37.8074 13.5547 37.6201 13.5829 37.4379 13.6094C37.2556 13.6326 37.1031 13.6525 36.9805 13.669C36.6921 13.7055 36.4286 13.7668 36.19 13.853C35.9547 13.9392 35.7657 14.0634 35.6232 14.2259C35.484 14.3849 35.4144 14.5971 35.4144 14.8622C35.4144 15.2301 35.5503 15.5085 35.8221 15.6974C36.0939 15.883 36.4402 15.9759 36.8612 15.9759ZM45.1451 17.1491C44.5286 17.1491 43.9784 16.9917 43.4945 16.6768C43.0139 16.3587 42.6361 15.9062 42.361 15.3196C42.0892 14.7296 41.9533 14.022 41.9533 13.1967C41.9533 12.3714 42.0908 11.6655 42.3659 11.0788C42.6444 10.4922 43.0255 10.0431 43.5094 9.73153C43.9933 9.41998 44.5418 9.2642 45.155 9.2642C45.629 9.2642 46.0101 9.34375 46.2985 9.50284C46.5901 9.65862 46.8155 9.84091 46.9746 10.0497C47.137 10.2585 47.263 10.4425 47.3525 10.6016H47.4419V6.81818H48.9284V17H47.4767V15.8118H47.3525C47.263 15.9742 47.1337 16.1598 46.9647 16.3686C46.7989 16.5774 46.5703 16.7597 46.2786 16.9155C45.9869 17.0713 45.6091 17.1491 45.1451 17.1491ZM45.4732 15.8814C45.9007 15.8814 46.262 15.7687 46.557 15.5433C46.8553 15.3146 47.0807 14.9981 47.2331 14.5938C47.3889 14.1894 47.4668 13.7187 47.4668 13.1818C47.4668 12.6515 47.3906 12.1875 47.2381 11.7898C47.0856 11.392 46.8619 11.0821 46.5669 10.8601C46.272 10.638 45.9074 10.527 45.4732 10.527C45.0257 10.527 44.6529 10.643 44.3546 10.875C44.0563 11.107 43.8309 11.4235 43.6784 11.8246C43.5293 12.2256 43.4547 12.678 43.4547 13.1818C43.4547 13.6922 43.531 14.1513 43.6834 14.5589C43.8359 14.9666 44.0613 15.2898 44.3596 15.5284C44.6612 15.7637 45.0324 15.8814 45.4732 15.8814ZM54.3413 17.1541C53.5889 17.1541 52.9409 16.9934 52.3974 16.6719C51.8571 16.3471 51.4395 15.8913 51.1445 15.3047C50.8529 14.7147 50.707 14.0237 50.707 13.2315C50.707 12.4493 50.8529 11.7599 51.1445 11.1634C51.4395 10.5668 51.8505 10.1011 52.3775 9.76633C52.9078 9.43158 53.5276 9.2642 54.2369 9.2642C54.6677 9.2642 55.0853 9.33546 55.4897 9.47798C55.8941 9.6205 56.257 9.84422 56.5785 10.1491C56.9 10.4541 57.1535 10.8501 57.3391 11.3374C57.5247 11.8213 57.6175 12.4096 57.6175 13.1023V13.6293H51.5472V12.5156H56.1609C56.1609 12.1245 56.0813 11.7782 55.9222 11.4766C55.7631 11.1716 55.5394 10.9313 55.2511 10.7557C54.966 10.58 54.6313 10.4922 54.2468 10.4922C53.8292 10.4922 53.4646 10.5949 53.1531 10.8004C52.8448 11.0026 52.6062 11.2678 52.4371 11.5959C52.2714 11.9207 52.1886 12.2737 52.1886 12.6548V13.5249C52.1886 14.0353 52.2781 14.4695 52.457 14.8274C52.6393 15.1854 52.8929 15.4588 53.2177 15.6477C53.5425 15.8333 53.922 15.9261 54.3562 15.9261C54.6379 15.9261 54.8948 15.8864 55.1268 15.8068C55.3588 15.724 55.5593 15.6013 55.7283 15.4389C55.8974 15.2765 56.0266 15.076 56.1161 14.8374L57.5231 15.0909C57.4104 15.5052 57.2082 15.8681 56.9165 16.1797C56.6282 16.4879 56.2653 16.7282 55.8278 16.9006C55.3936 17.0696 54.8981 17.1541 54.3413 17.1541ZM66.5366 9.36364V10.5568H62.3654V9.36364H66.5366ZM63.484 7.53409H64.9705V14.7578C64.9705 15.0462 65.0136 15.2633 65.0998 15.4091C65.186 15.5516 65.297 15.6494 65.4329 15.7024C65.5721 15.7521 65.7229 15.777 65.8853 15.777C66.0046 15.777 66.109 15.7687 66.1985 15.7521C66.288 15.7356 66.3576 15.7223 66.4073 15.7124L66.6758 16.9403C66.5896 16.9735 66.467 17.0066 66.3079 17.0398C66.1488 17.0762 65.9499 17.0961 65.7113 17.0994C65.3202 17.1061 64.9556 17.0365 64.6175 16.8906C64.2795 16.7448 64.006 16.5194 63.7972 16.2145C63.5884 15.9096 63.484 15.5268 63.484 15.0661V7.53409ZM71.3155 17.1541C70.5996 17.1541 69.9748 16.9901 69.4412 16.6619C68.9076 16.3338 68.4933 15.8748 68.1983 15.2848C67.9033 14.6948 67.7559 14.0054 67.7559 13.2166C67.7559 12.4245 67.9033 11.7318 68.1983 11.1385C68.4933 10.5452 68.9076 10.0845 69.4412 9.75639C69.9748 9.42827 70.5996 9.2642 71.3155 9.2642C72.0314 9.2642 72.6562 9.42827 73.1898 9.75639C73.7234 10.0845 74.1377 10.5452 74.4327 11.1385C74.7277 11.7318 74.8752 12.4245 74.8752 13.2166C74.8752 14.0054 74.7277 14.6948 74.4327 15.2848C74.1377 15.8748 73.7234 16.3338 73.1898 16.6619C72.6562 16.9901 72.0314 17.1541 71.3155 17.1541ZM71.3205 15.9062C71.7845 15.9062 72.169 15.7836 72.4739 15.5384C72.7788 15.2931 73.0042 14.9666 73.15 14.5589C73.2992 14.1513 73.3738 13.7022 73.3738 13.2116C73.3738 12.7244 73.2992 12.277 73.15 11.8693C73.0042 11.4583 72.7788 11.1286 72.4739 10.88C72.169 10.6314 71.7845 10.5071 71.3205 10.5071C70.8532 10.5071 70.4654 10.6314 70.1571 10.88C69.8522 11.1286 69.6252 11.4583 69.476 11.8693C69.3302 12.277 69.2573 12.7244 69.2573 13.2116C69.2573 13.7022 69.3302 14.1513 69.476 14.5589C69.6252 14.9666 69.8522 15.2931 70.1571 15.5384C70.4654 15.7836 70.8532 15.9062 71.3205 15.9062ZM85.0769 13.8331V9.36364H86.5684V17H85.1067V15.6776H85.0272C84.8515 16.0852 84.5698 16.425 84.182 16.6967C83.7975 16.9652 83.3186 17.0994 82.7452 17.0994C82.2547 17.0994 81.8205 16.9917 81.4426 16.7763C81.0681 16.5575 80.7731 16.2344 80.5577 15.8068C80.3456 15.3793 80.2395 14.8506 80.2395 14.2209V9.36364H81.726V14.0419C81.726 14.5623 81.8702 14.9766 82.1586 15.2848C82.4469 15.593 82.8214 15.7472 83.2821 15.7472C83.5605 15.7472 83.8373 15.6776 84.1124 15.5384C84.3908 15.3991 84.6212 15.1887 84.8034 14.907C84.9891 14.6252 85.0802 14.2673 85.0769 13.8331ZM90.0522 12.4659V17H88.5657V9.36364H89.9925V10.6065H90.087C90.2627 10.2022 90.5378 9.87737 90.9123 9.6321C91.2901 9.38684 91.7657 9.2642 92.3391 9.2642C92.8595 9.2642 93.3152 9.37358 93.7063 9.59233C94.0974 9.80777 94.4007 10.1293 94.6161 10.5568C94.8316 10.9844 94.9393 11.513 94.9393 12.1428V17H93.4528V12.3217C93.4528 11.7682 93.3086 11.3357 93.0202 11.0241C92.7319 10.7093 92.3358 10.5518 91.832 10.5518C91.4873 10.5518 91.1808 10.6264 90.9123 10.7756C90.6471 10.9247 90.4367 11.1435 90.2809 11.4318C90.1284 11.7169 90.0522 12.0616 90.0522 12.4659ZM98.4194 6.81818V17H96.9329V6.81818H98.4194ZM103.636 17.1541C102.92 17.1541 102.295 16.9901 101.762 16.6619C101.228 16.3338 100.814 15.8748 100.519 15.2848C100.224 14.6948 100.076 14.0054 100.076 13.2166C100.076 12.4245 100.224 11.7318 100.519 11.1385C100.814 10.5452 101.228 10.0845 101.762 9.75639C102.295 9.42827 102.92 9.2642 103.636 9.2642C104.352 9.2642 104.977 9.42827 105.51 9.75639C106.044 10.0845 106.458 10.5452 106.753 11.1385C107.048 11.7318 107.195 12.4245 107.195 13.2166C107.195 14.0054 107.048 14.6948 106.753 15.2848C106.458 15.8748 106.044 16.3338 105.51 16.6619C104.977 16.9901 104.352 17.1541 103.636 17.1541ZM103.641 15.9062C104.105 15.9062 104.489 15.7836 104.794 15.5384C105.099 15.2931 105.325 14.9666 105.47 14.5589C105.619 14.1513 105.694 13.7022 105.694 13.2116C105.694 12.7244 105.619 12.277 105.47 11.8693C105.325 11.4583 105.099 11.1286 104.794 10.88C104.489 10.6314 104.105 10.5071 103.641 10.5071C103.173 10.5071 102.786 10.6314 102.477 10.88C102.173 11.1286 101.945 11.4583 101.796 11.8693C101.651 12.277 101.578 12.7244 101.578 13.2116C101.578 13.7022 101.651 14.1513 101.796 14.5589C101.945 14.9666 102.173 15.2931 102.477 15.5384C102.786 15.7836 103.173 15.9062 103.641 15.9062ZM112.071 17.1541C111.332 17.1541 110.696 16.9867 110.162 16.652C109.632 16.3139 109.224 15.8482 108.939 15.255C108.654 14.6617 108.512 13.9822 108.512 13.2166C108.512 12.4411 108.658 11.7566 108.949 11.1634C109.241 10.5668 109.652 10.1011 110.182 9.76633C110.712 9.43158 111.337 9.2642 112.056 9.2642C112.636 9.2642 113.154 9.37192 113.608 9.58736C114.062 9.79948 114.428 10.0978 114.706 10.4822C114.988 10.8667 115.155 11.3158 115.208 11.8295H113.762C113.682 11.4716 113.5 11.1634 113.215 10.9048C112.933 10.6463 112.555 10.517 112.081 10.517C111.667 10.517 111.304 10.6264 110.993 10.8452C110.684 11.0606 110.444 11.3688 110.272 11.7699C110.099 12.1676 110.013 12.6383 110.013 13.1818C110.013 13.7386 110.098 14.2192 110.267 14.6236C110.436 15.0279 110.674 15.3411 110.983 15.5632C111.294 15.7853 111.66 15.8963 112.081 15.8963C112.363 15.8963 112.618 15.8449 112.847 15.7422C113.079 15.6361 113.273 15.4853 113.429 15.2898C113.588 15.0942 113.699 14.8589 113.762 14.5838H115.208C115.155 15.0777 114.995 15.5185 114.726 15.9062C114.458 16.294 114.098 16.599 113.647 16.821C113.2 17.0431 112.675 17.1541 112.071 17.1541ZM118.165 14.4098L118.155 12.5952H118.414L121.456 9.36364H123.236L119.766 13.0426H119.532L118.165 14.4098ZM116.798 17V6.81818H118.285V17H116.798ZM121.621 17L118.886 13.3707L119.91 12.3317L123.445 17H121.621Z" fill="#E5C391"/>
<path d="M141 6.75L146.25 12L141 17.25" stroke="#E5C391" stroke-width="1.5" stroke-linecap="round" stroke-linejoin="round"/>
</svg>
