<svg width="131" height="26" viewBox="0 0 131 26" fill="none" xmlns="http://www.w3.org/2000/svg">
<path d="M0 13C0 5.8203 5.8203 0 13 0H133.5V26H13C5.8203 26 0 20.1797 0 13Z" fill="#E5C391"/>
<path d="M17.6406 11.8125C17.9707 11.8125 18.25 12.0918 18.25 12.4219V18.5156C18.25 18.8711 17.9707 19.125 17.6406 19.125H15.6094C15.2539 19.125 15 18.8711 15 18.5156V12.4219C15 12.0918 15.2539 11.8125 15.6094 11.8125H17.6406ZM16.625 18.1094C16.9551 18.1094 17.2344 17.8555 17.2344 17.5C17.2344 17.1699 16.9551 16.8906 16.625 16.8906C16.2695 16.8906 16.0156 17.1699 16.0156 17.5C16.0156 17.8555 16.2695 18.1094 16.625 18.1094ZM24.75 8.20703C24.75 9.27344 24.0898 9.88281 23.8867 10.5938H26.4766C27.3145 10.5938 27.9746 11.3047 27.9746 12.0918C28 12.5488 27.7969 13.0312 27.4922 13.3359C27.7461 13.9199 27.6953 14.7578 27.2637 15.3418C27.4668 16.002 27.2637 16.8145 26.832 17.2461C26.959 17.7031 26.9082 18.084 26.6797 18.3887C26.1719 19.125 24.877 19.125 23.7852 19.125H23.709C22.4902 19.125 21.5 18.6934 20.6875 18.3379C20.2812 18.1602 19.748 17.9316 19.3418 17.9316C19.1895 17.9062 19.0625 17.7793 19.0625 17.627V12.1934C19.0625 12.1172 19.0879 12.041 19.1387 11.9648C20.1543 10.9746 20.5859 9.93359 21.3984 9.0957C21.7793 8.71484 21.9062 8.15625 22.0586 7.59766C22.1602 7.14062 22.3887 6.125 22.9219 6.125C23.5312 6.125 24.75 6.32812 24.75 8.20703Z" fill="black"/>
<path d="M35.4325 8.54545H37.5284L40.3352 15.3963H40.446L43.2528 8.54545H45.3487V18H43.7053V11.5046H43.6175L41.0046 17.9723H39.7766L37.1637 11.4908H37.076V18H35.4325V8.54545ZM50.233 18.1385C49.5405 18.1385 48.9403 17.9862 48.4325 17.6815C47.9247 17.3768 47.5308 16.9505 47.2507 16.4027C46.9737 15.8549 46.8352 15.2147 46.8352 14.4822C46.8352 13.7498 46.9737 13.1081 47.2507 12.5572C47.5308 12.0063 47.9247 11.5785 48.4325 11.2738C48.9403 10.9691 49.5405 10.8168 50.233 10.8168C50.9254 10.8168 51.5256 10.9691 52.0334 11.2738C52.5412 11.5785 52.9336 12.0063 53.2106 12.5572C53.4906 13.1081 53.6307 13.7498 53.6307 14.4822C53.6307 15.2147 53.4906 15.8549 53.2106 16.4027C52.9336 16.9505 52.5412 17.3768 52.0334 17.6815C51.5256 17.9862 50.9254 18.1385 50.233 18.1385ZM50.2422 16.7997C50.6177 16.7997 50.9316 16.6966 51.1839 16.4904C51.4363 16.2811 51.6241 16.0011 51.7472 15.6502C51.8733 15.2994 51.9364 14.9085 51.9364 14.4776C51.9364 14.0437 51.8733 13.6513 51.7472 13.3004C51.6241 12.9465 51.4363 12.6649 51.1839 12.4556C50.9316 12.2463 50.6177 12.1417 50.2422 12.1417C49.8575 12.1417 49.5374 12.2463 49.282 12.4556C49.0296 12.6649 48.8403 12.9465 48.7141 13.3004C48.591 13.6513 48.5295 14.0437 48.5295 14.4776C48.5295 14.9085 48.591 15.2994 48.7141 15.6502C48.8403 16.0011 49.0296 16.2811 49.282 16.4904C49.5374 16.6966 49.8575 16.7997 50.2422 16.7997ZM60.6535 12.7834L59.1301 12.9496C59.087 12.7957 59.0116 12.651 58.9039 12.5156C58.7992 12.3802 58.6576 12.271 58.4791 12.1879C58.3006 12.1048 58.0821 12.0632 57.8236 12.0632C57.4758 12.0632 57.1834 12.1386 56.9465 12.2894C56.7126 12.4402 56.5972 12.6357 56.6002 12.8757C56.5972 13.0819 56.6726 13.2496 56.8264 13.3789C56.9834 13.5082 57.2419 13.6143 57.602 13.6974L58.8115 13.956C59.4825 14.1006 59.981 14.3299 60.3073 14.6438C60.6366 14.9577 60.8028 15.3686 60.8058 15.8764C60.8028 16.3227 60.672 16.7166 60.4134 17.0582C60.158 17.3968 59.8025 17.6615 59.347 17.8523C58.8915 18.0431 58.3683 18.1385 57.7774 18.1385C56.9095 18.1385 56.2109 17.9569 55.6816 17.5938C55.1522 17.2275 54.8367 16.7182 54.7352 16.0657L56.3648 15.9087C56.4387 16.2288 56.5956 16.4704 56.8357 16.6335C57.0757 16.7966 57.3881 16.8782 57.7728 16.8782C58.1698 16.8782 58.4884 16.7966 58.7284 16.6335C58.9716 16.4704 59.0931 16.2688 59.0931 16.0288C59.0931 15.8256 59.0146 15.6579 58.8577 15.5256C58.7038 15.3932 58.4637 15.2917 58.1375 15.2209L56.928 14.967C56.2478 14.8254 55.7446 14.5869 55.4184 14.2514C55.0922 13.9129 54.9306 13.4851 54.9337 12.968C54.9306 12.531 55.0491 12.1525 55.2892 11.8324C55.5323 11.5092 55.8693 11.2599 56.3002 11.0845C56.7341 10.906 57.2342 10.8168 57.8005 10.8168C58.6315 10.8168 59.2855 10.9937 59.7625 11.3477C60.2426 11.7016 60.5396 12.1802 60.6535 12.7834ZM65.7247 10.9091V12.2017H61.6483V10.9091H65.7247ZM62.6547 9.21023H64.3259V15.8672C64.3259 16.0919 64.3598 16.2642 64.4275 16.3842C64.4983 16.5012 64.5906 16.5812 64.7045 16.6243C64.8183 16.6674 64.9445 16.6889 65.083 16.6889C65.1876 16.6889 65.2831 16.6812 65.3692 16.6658C65.4585 16.6504 65.5262 16.6366 65.5724 16.6243L65.854 17.9308C65.7647 17.9615 65.637 17.9954 65.4708 18.0323C65.3077 18.0692 65.1076 18.0908 64.8706 18.0969C64.4521 18.1093 64.0751 18.0462 63.7396 17.9077C63.4041 17.7661 63.1379 17.5476 62.941 17.2521C62.7471 16.9567 62.6517 16.5874 62.6547 16.1442V9.21023ZM70.4208 18V8.54545H73.9663C74.6926 8.54545 75.302 8.68087 75.7944 8.9517C76.2899 9.22254 76.6638 9.59493 76.9162 10.0689C77.1716 10.5398 77.2994 11.0753 77.2994 11.6754C77.2994 12.2817 77.1716 12.8203 76.9162 13.2912C76.6607 13.7621 76.2837 14.1329 75.7852 14.4038C75.2866 14.6715 74.6726 14.8054 73.9432 14.8054H71.5934V13.3974H73.7124C74.1371 13.3974 74.4848 13.3235 74.7557 13.1758C75.0265 13.0281 75.2266 12.8249 75.3558 12.5664C75.4882 12.3079 75.5543 12.0109 75.5543 11.6754C75.5543 11.34 75.4882 11.0445 75.3558 10.7891C75.2266 10.5336 75.025 10.3351 74.7511 10.1935C74.4802 10.0489 74.1309 9.97656 73.7031 9.97656H72.1335V18H70.4208ZM81.7046 18.1385C81.0122 18.1385 80.412 17.9862 79.9042 17.6815C79.3964 17.3768 79.0025 16.9505 78.7224 16.4027C78.4454 15.8549 78.3069 15.2147 78.3069 14.4822C78.3069 13.7498 78.4454 13.1081 78.7224 12.5572C79.0025 12.0063 79.3964 11.5785 79.9042 11.2738C80.412 10.9691 81.0122 10.8168 81.7046 10.8168C82.3971 10.8168 82.9972 10.9691 83.5051 11.2738C84.0129 11.5785 84.4053 12.0063 84.6823 12.5572C84.9623 13.1081 85.1024 13.7498 85.1024 14.4822C85.1024 15.2147 84.9623 15.8549 84.6823 16.4027C84.4053 16.9505 84.0129 17.3768 83.5051 17.6815C82.9972 17.9862 82.3971 18.1385 81.7046 18.1385ZM81.7139 16.7997C82.0893 16.7997 82.4033 16.6966 82.6556 16.4904C82.908 16.2811 83.0957 16.0011 83.2188 15.6502C83.345 15.2994 83.4081 14.9085 83.4081 14.4776C83.4081 14.0437 83.345 13.6513 83.2188 13.3004C83.0957 12.9465 82.908 12.6649 82.6556 12.4556C82.4033 12.2463 82.0893 12.1417 81.7139 12.1417C81.3292 12.1417 81.0091 12.2463 80.7536 12.4556C80.5013 12.6649 80.312 12.9465 80.1858 13.3004C80.0627 13.6513 80.0012 14.0437 80.0012 14.4776C80.0012 14.9085 80.0627 15.2994 80.1858 15.6502C80.312 16.0011 80.5013 16.2811 80.7536 16.4904C81.0091 16.6966 81.3292 16.7997 81.7139 16.7997ZM86.5208 20.6591V10.9091H88.1642V12.0817H88.2612C88.3474 11.9093 88.4689 11.7262 88.6259 11.5323C88.7828 11.3353 88.9952 11.1676 89.263 11.0291C89.5307 10.8875 89.8723 10.8168 90.2878 10.8168C90.8356 10.8168 91.3296 10.9568 91.7697 11.2369C92.2129 11.5138 92.5637 11.9247 92.8223 12.4695C93.0839 13.0111 93.2147 13.6759 93.2147 14.4638C93.2147 15.2424 93.0869 15.9041 92.8315 16.4489C92.5761 16.9936 92.2283 17.4091 91.7882 17.6953C91.3481 17.9815 90.8495 18.1246 90.2924 18.1246C89.8862 18.1246 89.5492 18.0569 89.2814 17.9215C89.0137 17.7861 88.7982 17.623 88.6351 17.4322C88.4751 17.2383 88.3504 17.0552 88.2612 16.8828H88.1919V20.6591H86.5208ZM88.1596 14.4545C88.1596 14.9131 88.2243 15.3147 88.3535 15.6594C88.4859 16.0041 88.6751 16.2734 88.9213 16.4673C89.1706 16.6581 89.4722 16.7536 89.8262 16.7536C90.1955 16.7536 90.5048 16.6551 90.7541 16.4581C91.0034 16.258 91.1911 15.9857 91.3173 15.641C91.4466 15.2932 91.5112 14.8977 91.5112 14.4545C91.5112 14.0144 91.4481 13.6236 91.3219 13.282C91.1957 12.9403 91.008 12.6726 90.7587 12.4787C90.5094 12.2848 90.1986 12.1879 89.8262 12.1879C89.4692 12.1879 89.166 12.2817 88.9167 12.4695C88.6674 12.6572 88.4782 12.9203 88.3489 13.2589C88.2227 13.5974 88.1596 13.996 88.1596 14.4545ZM99.1653 15.0178V10.9091H100.836V18H99.2161V16.7397H99.1422C98.9822 17.1367 98.719 17.4614 98.3528 17.7138C97.9896 17.9661 97.5418 18.0923 97.0094 18.0923C96.5447 18.0923 96.1338 17.9892 95.7768 17.783C95.4229 17.5737 95.1459 17.2706 94.9458 16.8736C94.7458 16.4735 94.6458 15.9903 94.6458 15.424V10.9091H96.3169V15.1655C96.3169 15.6148 96.44 15.9718 96.6863 16.2365C96.9325 16.5012 97.2556 16.6335 97.6557 16.6335C97.9019 16.6335 98.1404 16.5735 98.3713 16.4535C98.6021 16.3335 98.7914 16.1549 98.9391 15.918C99.0899 15.6779 99.1653 15.3778 99.1653 15.0178ZM104.226 8.54545V18H102.555V8.54545H104.226ZM107.985 18.1431C107.536 18.1431 107.131 18.0631 106.771 17.9031C106.414 17.7399 106.131 17.4999 105.922 17.1829C105.715 16.8659 105.612 16.475 105.612 16.0103C105.612 15.6102 105.686 15.2794 105.834 15.0178C105.982 14.7562 106.183 14.5469 106.439 14.3899C106.694 14.233 106.982 14.1145 107.302 14.0344C107.625 13.9513 107.959 13.8913 108.304 13.8544C108.719 13.8113 109.056 13.7728 109.315 13.739C109.573 13.7021 109.761 13.6467 109.878 13.5728C109.998 13.4959 110.058 13.3774 110.058 13.2173V13.1896C110.058 12.8419 109.955 12.5726 109.749 12.3817C109.542 12.1909 109.245 12.0955 108.858 12.0955C108.448 12.0955 108.124 12.1848 107.884 12.3633C107.647 12.5418 107.487 12.7526 107.403 12.9957L105.843 12.7741C105.966 12.3433 106.169 11.9832 106.452 11.6939C106.736 11.4015 107.082 11.183 107.491 11.0384C107.9 10.8906 108.353 10.8168 108.848 10.8168C109.19 10.8168 109.53 10.8568 109.869 10.9368C110.207 11.0168 110.516 11.1491 110.797 11.3338C111.077 11.5154 111.301 11.7631 111.471 12.0771C111.643 12.391 111.729 12.7834 111.729 13.2543V18H110.123V17.0259H110.067C109.966 17.2229 109.822 17.4076 109.638 17.5799C109.456 17.7492 109.227 17.8861 108.95 17.9908C108.676 18.0923 108.354 18.1431 107.985 18.1431ZM108.419 16.9151C108.754 16.9151 109.045 16.849 109.292 16.7166C109.538 16.5812 109.727 16.4027 109.859 16.1811C109.995 15.9595 110.062 15.7179 110.062 15.4563V14.6207C110.01 14.6638 109.921 14.7038 109.795 14.7408C109.672 14.7777 109.533 14.81 109.379 14.8377C109.225 14.8654 109.073 14.89 108.922 14.9116C108.771 14.9331 108.641 14.9516 108.53 14.967C108.281 15.0008 108.057 15.0562 107.86 15.1332C107.663 15.2101 107.508 15.3178 107.394 15.4563C107.28 15.5917 107.223 15.7672 107.223 15.9826C107.223 16.2904 107.336 16.5227 107.56 16.6797C107.785 16.8366 108.071 16.9151 108.419 16.9151ZM113.409 18V10.9091H115.03V12.0909H115.104C115.233 11.6816 115.455 11.3661 115.768 11.1445C116.085 10.9199 116.447 10.8075 116.853 10.8075C116.946 10.8075 117.049 10.8121 117.163 10.8214C117.28 10.8275 117.377 10.8383 117.453 10.8537V12.391C117.383 12.3664 117.27 12.3448 117.116 12.3263C116.966 12.3048 116.819 12.294 116.678 12.294C116.373 12.294 116.099 12.3602 115.856 12.4925C115.616 12.6218 115.427 12.8018 115.288 13.0327C115.15 13.2635 115.081 13.5297 115.081 13.8313V18H113.409Z" fill="black"/>
</svg>
