<svg width="118" height="26" viewBox="0 0 118 26" fill="none" xmlns="http://www.w3.org/2000/svg">
<path d="M0 13C0 5.8203 5.8203 0 13 0H118.5V26H13C5.8203 26 0 20.1797 0 13Z" fill="#7B2AFF"/>
<path d="M21.5762 6.58203C21.8809 5.97266 22.7441 5.99805 23.0234 6.58203L24.6992 9.95898L28.4062 10.4922C29.0664 10.5938 29.3203 11.4062 28.8379 11.8887L26.1719 14.5039L26.8066 18.1855C26.9082 18.8457 26.1973 19.3535 25.6133 19.0488L22.3125 17.2969L18.9863 19.0488C18.4023 19.3535 17.6914 18.8457 17.793 18.1855L18.4277 14.5039L15.7617 11.8887C15.2793 11.4062 15.5332 10.5938 16.1934 10.4922L19.9258 9.95898L21.5762 6.58203Z" fill="url(#paint0_linear_1205_3203)"/>
<path d="M37.4325 18V8.54545H41.0518C41.7351 8.54545 42.3029 8.65317 42.7553 8.86861C43.2108 9.08097 43.5509 9.3718 43.7756 9.74112C44.0033 10.1104 44.1172 10.529 44.1172 10.9968C44.1172 11.3815 44.0433 11.7108 43.8956 11.9847C43.7479 12.2556 43.5494 12.4756 43.3001 12.6449C43.0508 12.8142 42.7723 12.9357 42.4645 13.0096V13.1019C42.8 13.1204 43.1216 13.2235 43.4293 13.4112C43.7402 13.5959 43.9941 13.8575 44.1911 14.196C44.388 14.5346 44.4865 14.9439 44.4865 15.424C44.4865 15.9134 44.368 16.3535 44.131 16.7443C43.8941 17.1321 43.5371 17.4383 43.06 17.663C42.583 17.8877 41.9828 18 41.2596 18H37.4325ZM39.1452 16.5689H40.9872C41.6089 16.5689 42.0567 16.4504 42.3306 16.2134C42.6076 15.9734 42.7461 15.6656 42.7461 15.2901C42.7461 15.0101 42.6768 14.7577 42.5384 14.533C42.3999 14.3053 42.2029 14.1268 41.9474 13.9975C41.692 13.8652 41.3873 13.799 41.0334 13.799H39.1452V16.5689ZM39.1452 12.5664H40.8395C41.1349 12.5664 41.4012 12.5125 41.6381 12.4048C41.8751 12.294 42.0613 12.1386 42.1967 11.9386C42.3352 11.7354 42.4045 11.4954 42.4045 11.2184C42.4045 10.8522 42.2752 10.5505 42.0167 10.3136C41.7612 10.0766 41.3812 9.9581 40.8764 9.9581H39.1452V12.5664ZM49.0418 18.1385C48.3309 18.1385 47.7169 17.9908 47.1998 17.6953C46.6859 17.3968 46.2904 16.9751 46.0134 16.4304C45.7364 15.8826 45.5979 15.2378 45.5979 14.4961C45.5979 13.7667 45.7364 13.1265 46.0134 12.5756C46.2935 12.0217 46.6843 11.5908 47.186 11.283C47.6876 10.9722 48.277 10.8168 48.9541 10.8168C49.3911 10.8168 49.8035 10.8875 50.1913 11.0291C50.5822 11.1676 50.9269 11.383 51.2254 11.6754C51.527 11.9678 51.764 12.3402 51.9363 12.7926C52.1087 13.242 52.1949 13.7775 52.1949 14.3991V14.9116H46.3827V13.7852H50.593C50.5899 13.4651 50.5206 13.1804 50.3852 12.9311C50.2498 12.6787 50.0605 12.4802 49.8174 12.3356C49.5773 12.1909 49.2973 12.1186 48.9772 12.1186C48.6356 12.1186 48.3355 12.2017 48.077 12.3679C47.8184 12.531 47.6169 12.7464 47.4722 13.0142C47.3306 13.2789 47.2583 13.5697 47.2552 13.8867V14.87C47.2552 15.2824 47.3306 15.6364 47.4814 15.9318C47.6323 16.2242 47.8431 16.4489 48.1139 16.6058C48.3847 16.7597 48.7017 16.8366 49.0649 16.8366C49.308 16.8366 49.5281 16.8028 49.7251 16.7351C49.922 16.6643 50.0928 16.5612 50.2375 16.4258C50.3821 16.2904 50.4914 16.1226 50.5653 15.9226L52.1256 16.098C52.0271 16.5104 51.8394 16.8705 51.5624 17.1783C51.2885 17.483 50.9376 17.7199 50.5099 17.8892C50.0821 18.0554 49.5927 18.1385 49.0418 18.1385ZM59.2131 12.7834L57.6896 12.9496C57.6465 12.7957 57.5711 12.651 57.4634 12.5156C57.3588 12.3802 57.2172 12.271 57.0387 12.1879C56.8602 12.1048 56.6417 12.0632 56.3832 12.0632C56.0354 12.0632 55.743 12.1386 55.506 12.2894C55.2721 12.4402 55.1567 12.6357 55.1598 12.8757C55.1567 13.0819 55.2321 13.2496 55.386 13.3789C55.543 13.5082 55.8015 13.6143 56.1616 13.6974L57.3711 13.956C58.042 14.1006 58.5406 14.3299 58.8668 14.6438C59.1961 14.9577 59.3623 15.3686 59.3654 15.8764C59.3623 16.3227 59.2315 16.7166 58.973 17.0582C58.7176 17.3968 58.3621 17.6615 57.9066 17.8523C57.4511 18.0431 56.9279 18.1385 56.337 18.1385C55.4691 18.1385 54.7705 17.9569 54.2411 17.5938C53.7118 17.2275 53.3963 16.7182 53.2947 16.0657L54.9244 15.9087C54.9982 16.2288 55.1552 16.4704 55.3952 16.6335C55.6353 16.7966 55.9477 16.8782 56.3324 16.8782C56.7294 16.8782 57.0479 16.7966 57.288 16.6335C57.5311 16.4704 57.6527 16.2688 57.6527 16.0288C57.6527 15.8256 57.5742 15.6579 57.4173 15.5256C57.2634 15.3932 57.0233 15.2917 56.6971 15.2209L55.4876 14.967C54.8074 14.8254 54.3042 14.5869 53.978 14.2514C53.6518 13.9129 53.4902 13.4851 53.4933 12.968C53.4902 12.531 53.6087 12.1525 53.8487 11.8324C54.0919 11.5092 54.4289 11.2599 54.8597 11.0845C55.2937 10.906 55.7938 10.8168 56.3601 10.8168C57.1911 10.8168 57.8451 10.9937 58.3221 11.3477C58.8022 11.7016 59.0992 12.1802 59.2131 12.7834ZM64.2843 10.9091V12.2017H60.2079V10.9091H64.2843ZM61.2143 9.21023H62.8855V15.8672C62.8855 16.0919 62.9193 16.2642 62.987 16.3842C63.0578 16.5012 63.1502 16.5812 63.264 16.6243C63.3779 16.6674 63.5041 16.6889 63.6426 16.6889C63.7472 16.6889 63.8426 16.6812 63.9288 16.6658C64.0181 16.6504 64.0858 16.6366 64.1319 16.6243L64.4135 17.9308C64.3243 17.9615 64.1966 17.9954 64.0304 18.0323C63.8672 18.0692 63.6672 18.0908 63.4302 18.0969C63.0117 18.1093 62.6346 18.0462 62.2992 17.9077C61.9637 17.7661 61.6975 17.5476 61.5005 17.2521C61.3066 16.9567 61.2112 16.5874 61.2143 16.1442V9.21023ZM70.2453 8.54545L72.7059 15.9872H72.8028L75.2588 8.54545H77.1423L73.8092 18H71.6949L68.3664 8.54545H70.2453ZM79.6179 18.1431C79.1686 18.1431 78.7638 18.0631 78.4038 17.9031C78.0468 17.7399 77.7636 17.4999 77.5543 17.1829C77.3481 16.8659 77.245 16.475 77.245 16.0103C77.245 15.6102 77.3189 15.2794 77.4666 15.0178C77.6143 14.7562 77.8159 14.5469 78.0714 14.3899C78.3268 14.233 78.6146 14.1145 78.9347 14.0344C79.2578 13.9513 79.5917 13.8913 79.9364 13.8544C80.3519 13.8113 80.6889 13.7728 80.9474 13.739C81.206 13.7021 81.3937 13.6467 81.5107 13.5728C81.6307 13.4959 81.6907 13.3774 81.6907 13.2173V13.1896C81.6907 12.8419 81.5876 12.5726 81.3814 12.3817C81.1752 12.1909 80.8782 12.0955 80.4904 12.0955C80.0811 12.0955 79.7564 12.1848 79.5163 12.3633C79.2794 12.5418 79.1193 12.7526 79.0362 12.9957L77.4759 12.7741C77.599 12.3433 77.8021 11.9832 78.0852 11.6939C78.3684 11.4015 78.7146 11.183 79.1239 11.0384C79.5333 10.8906 79.9857 10.8168 80.4812 10.8168C80.8228 10.8168 81.1629 10.8568 81.5014 10.9368C81.84 11.0168 82.1493 11.1491 82.4293 11.3338C82.7094 11.5154 82.9341 11.7631 83.1033 12.0771C83.2757 12.391 83.3619 12.7834 83.3619 13.2543V18H81.7553V17.0259H81.6999C81.5984 17.2229 81.4553 17.4076 81.2706 17.5799C81.089 17.7492 80.8597 17.8861 80.5827 17.9908C80.3088 18.0923 79.9872 18.1431 79.6179 18.1431ZM80.0518 16.9151C80.3873 16.9151 80.6781 16.849 80.9244 16.7166C81.1706 16.5812 81.3598 16.4027 81.4922 16.1811C81.6276 15.9595 81.6953 15.7179 81.6953 15.4563V14.6207C81.643 14.6638 81.5537 14.7038 81.4276 14.7408C81.3045 14.7777 81.166 14.81 81.0121 14.8377C80.8582 14.8654 80.7058 14.89 80.555 14.9116C80.4042 14.9331 80.2734 14.9516 80.1626 14.967C79.9134 15.0008 79.6902 15.0562 79.4933 15.1332C79.2963 15.2101 79.1409 15.3178 79.027 15.4563C78.9131 15.5917 78.8562 15.7672 78.8562 15.9826C78.8562 16.2904 78.9685 16.5227 79.1932 16.6797C79.4179 16.8366 79.7041 16.9151 80.0518 16.9151ZM86.7134 8.54545V18H85.0423V8.54545H86.7134ZM92.9514 15.0178V10.9091H94.6226V18H93.0022V16.7397H92.9284C92.7683 17.1367 92.5052 17.4614 92.1389 17.7138C91.7758 17.9661 91.328 18.0923 90.7955 18.0923C90.3308 18.0923 89.92 17.9892 89.5629 17.783C89.209 17.5737 88.932 17.2706 88.732 16.8736C88.5319 16.4735 88.4319 15.9903 88.4319 15.424V10.9091H90.1031V15.1655C90.1031 15.6148 90.2262 15.9718 90.4724 16.2365C90.7186 16.5012 91.0418 16.6335 91.4419 16.6335C91.6881 16.6335 91.9266 16.5735 92.1574 16.4535C92.3882 16.3335 92.5775 16.1549 92.7252 15.918C92.876 15.6779 92.9514 15.3778 92.9514 15.0178ZM99.4803 18.1385C98.7694 18.1385 98.1554 17.9908 97.6383 17.6953C97.1243 17.3968 96.7289 16.9751 96.4519 16.4304C96.1749 15.8826 96.0364 15.2378 96.0364 14.4961C96.0364 13.7667 96.1749 13.1265 96.4519 12.5756C96.7319 12.0217 97.1228 11.5908 97.6245 11.283C98.1261 10.9722 98.7155 10.8168 99.3926 10.8168C99.8296 10.8168 100.242 10.8875 100.63 11.0291C101.021 11.1676 101.365 11.383 101.664 11.6754C101.965 11.9678 102.202 12.3402 102.375 12.7926C102.547 13.242 102.633 13.7775 102.633 14.3991V14.9116H96.8212V13.7852H101.031C101.028 13.4651 100.959 13.1804 100.824 12.9311C100.688 12.6787 100.499 12.4802 100.256 12.3356C100.016 12.1909 99.7357 12.1186 99.4157 12.1186C99.074 12.1186 98.774 12.2017 98.5154 12.3679C98.2569 12.531 98.0553 12.7464 97.9107 13.0142C97.7691 13.2789 97.6968 13.5697 97.6937 13.8867V14.87C97.6937 15.2824 97.7691 15.6364 97.9199 15.9318C98.0707 16.2242 98.2815 16.4489 98.5524 16.6058C98.8232 16.7597 99.1402 16.8366 99.5034 16.8366C99.7465 16.8366 99.9666 16.8028 100.164 16.7351C100.36 16.6643 100.531 16.5612 100.676 16.4258C100.821 16.2904 100.93 16.1226 101.004 15.9226L102.564 16.098C102.466 16.5104 102.278 16.8705 102.001 17.1783C101.727 17.483 101.376 17.7199 100.948 17.8892C100.521 18.0554 100.031 18.1385 99.4803 18.1385Z" fill="white"/>
<defs>
<linearGradient id="paint0_linear_1205_3203" x1="22.5" y1="6.5" x2="22.5" y2="19.5" gradientUnits="userSpaceOnUse">
<stop stop-color="white"/>
<stop offset="1" stop-color="#EDE2FF"/>
</linearGradient>
</defs>
</svg>
