<svg width="18" height="18" viewBox="0 0 18 18" fill="none" xmlns="http://www.w3.org/2000/svg">
<path d="M0.75 3.75C0.75 3.33579 1.08579 3 1.5 3H16.5C16.9142 3 17.25 3.33579 17.25 3.75V14.25C17.25 14.6642 16.9142 15 16.5 15H1.5C1.08579 15 0.75 14.6642 0.75 14.25V3.75ZM9.75 6V7.5H14.25V6H9.75ZM13.5 9H9.75V10.5H13.5V9ZM7.875 7.5C7.875 6.46447 7.03553 5.625 6 5.625C4.96447 5.625 4.125 6.46447 4.125 7.5C4.125 8.53552 4.96447 9.375 6 9.375C7.03553 9.375 7.875 8.53552 7.875 7.5ZM6 10.125C4.55025 10.125 3.375 11.3003 3.375 12.75H8.625C8.625 11.3003 7.44975 10.125 6 10.125Z" fill="white"/>
</svg>
