<svg width="30" height="30" viewBox="0 0 30 30" fill="none" xmlns="http://www.w3.org/2000/svg">
<path d="M20.854 8.26172C21.2675 8.26172 21.6027 8.59694 21.6027 9.01045V10.326L20.1052 11.8234V9.75919H9.62296V15.8239L12.6179 12.8294L15.8584 16.0703L14.865 17.064L14.8604 20.2377L18.0398 20.2424L19.0353 19.2464L20.03 20.2415H20.1052V18.1765L21.6027 16.679V20.9902C21.6027 21.4037 21.2675 21.7389 20.854 21.7389H8.87422C8.46071 21.7389 8.12549 21.4037 8.12549 20.9902V9.01045C8.12549 8.59694 8.46071 8.26172 8.87422 8.26172H20.854ZM22.1854 11.8613L23.2442 12.9202L17.4204 18.744L16.36 18.7424L16.3616 17.6851L22.1854 11.8613ZM17.4847 11.2567C18.1049 11.2567 18.6078 11.7595 18.6078 12.3798C18.6078 13 18.1049 13.5029 17.4847 13.5029C16.8644 13.5029 16.3616 13 16.3616 12.3798C16.3616 11.7595 16.8644 11.2567 17.4847 11.2567Z" fill="white"/>
</svg>
