<svg width="384" height="41" viewBox="0 0 384 41" fill="none" xmlns="http://www.w3.org/2000/svg">
<rect y="0.5" width="384" height="40" rx="20" fill="#D1D5DB"/>
<rect x="115.5" y="12.5" width="16" height="16" stroke="#6B7280"/>
<path d="M128.5 15.5H117.833C117.1 15.5 116.507 16.1 116.507 16.8333L116.5 24.8333C116.5 25.5667 117.1 26.1667 117.833 26.1667H128.5C129.233 26.1667 129.833 25.5667 129.833 24.8333V16.8333C129.833 16.1 129.233 15.5 128.5 15.5ZM128.5 18.1667L123.167 21.5L117.833 18.1667V16.8333L123.167 20.1667L128.5 16.8333V18.1667Z" fill="#6B7280"/>
<path d="M145.091 26.5V14.8636H146.847V24.9886H152.119V26.5H145.091ZM157.662 26.6761C156.844 26.6761 156.13 26.4886 155.52 26.1136C154.91 25.7386 154.437 25.214 154.099 24.5398C153.762 23.8655 153.594 23.0777 153.594 22.1761C153.594 21.2708 153.762 20.4792 154.099 19.8011C154.437 19.1231 154.91 18.5966 155.52 18.2216C156.13 17.8466 156.844 17.6591 157.662 17.6591C158.48 17.6591 159.194 17.8466 159.804 18.2216C160.414 18.5966 160.887 19.1231 161.224 19.8011C161.562 20.4792 161.73 21.2708 161.73 22.1761C161.73 23.0777 161.562 23.8655 161.224 24.5398C160.887 25.214 160.414 25.7386 159.804 26.1136C159.194 26.4886 158.48 26.6761 157.662 26.6761ZM157.668 25.25C158.198 25.25 158.637 25.1098 158.986 24.8295C159.334 24.5492 159.592 24.1761 159.759 23.7102C159.929 23.2443 160.014 22.7311 160.014 22.1705C160.014 21.6136 159.929 21.1023 159.759 20.6364C159.592 20.1667 159.334 19.7898 158.986 19.5057C158.637 19.2216 158.198 19.0795 157.668 19.0795C157.134 19.0795 156.69 19.2216 156.338 19.5057C155.99 19.7898 155.73 20.1667 155.56 20.6364C155.393 21.1023 155.31 21.6136 155.31 22.1705C155.31 22.7311 155.393 23.2443 155.56 23.7102C155.73 24.1761 155.99 24.5492 156.338 24.8295C156.69 25.1098 157.134 25.25 157.668 25.25ZM167.286 29.9545C166.592 29.9545 165.996 29.8636 165.496 29.6818C165 29.5 164.594 29.2595 164.28 28.9602C163.965 28.661 163.731 28.3333 163.575 27.9773L165.036 27.375C165.138 27.5417 165.274 27.7178 165.445 27.9034C165.619 28.0928 165.854 28.2538 166.149 28.3864C166.448 28.5189 166.833 28.5852 167.303 28.5852C167.946 28.5852 168.479 28.428 168.899 28.1136C169.32 27.803 169.53 27.3068 169.53 26.625V24.9091H169.422C169.32 25.0947 169.172 25.3011 168.979 25.5284C168.789 25.7557 168.528 25.9527 168.195 26.1193C167.861 26.286 167.428 26.3693 166.893 26.3693C166.204 26.3693 165.583 26.2083 165.03 25.8864C164.481 25.5606 164.045 25.0814 163.723 24.4489C163.405 23.8125 163.246 23.0303 163.246 22.1023C163.246 21.1742 163.403 20.3788 163.717 19.7159C164.036 19.053 164.471 18.5455 165.024 18.1932C165.577 17.8371 166.204 17.6591 166.905 17.6591C167.446 17.6591 167.884 17.75 168.217 17.9318C168.551 18.1098 168.81 18.3182 168.996 18.5568C169.185 18.7955 169.331 19.0057 169.433 19.1875H169.558V17.7727H171.223V26.6932C171.223 27.4432 171.049 28.0587 170.7 28.5398C170.352 29.0208 169.88 29.3769 169.286 29.608C168.695 29.839 168.028 29.9545 167.286 29.9545ZM167.268 24.9602C167.757 24.9602 168.17 24.8466 168.507 24.6193C168.848 24.3883 169.106 24.0587 169.28 23.6307C169.458 23.1989 169.547 22.6818 169.547 22.0795C169.547 21.4924 169.46 20.9754 169.286 20.5284C169.111 20.0814 168.856 19.733 168.518 19.483C168.181 19.2292 167.765 19.1023 167.268 19.1023C166.757 19.1023 166.331 19.2348 165.99 19.5C165.649 19.7614 165.392 20.1174 165.217 20.5682C165.047 21.0189 164.962 21.5227 164.962 22.0795C164.962 22.6515 165.049 23.1534 165.223 23.5852C165.397 24.017 165.655 24.3542 165.996 24.5966C166.34 24.839 166.765 24.9602 167.268 24.9602ZM173.501 26.5V17.7727H175.2V26.5H173.501ZM174.359 16.4261C174.064 16.4261 173.81 16.3277 173.598 16.1307C173.39 15.9299 173.286 15.6913 173.286 15.4148C173.286 15.1345 173.39 14.8958 173.598 14.6989C173.81 14.4981 174.064 14.3977 174.359 14.3977C174.655 14.3977 174.907 14.4981 175.115 14.6989C175.327 14.8958 175.433 15.1345 175.433 15.4148C175.433 15.6913 175.327 15.9299 175.115 16.1307C174.907 16.3277 174.655 16.4261 174.359 16.4261ZM179.185 21.3182V26.5H177.486V17.7727H179.116V19.1932H179.224C179.425 18.7311 179.74 18.3598 180.168 18.0795C180.599 17.7992 181.143 17.6591 181.798 17.6591C182.393 17.6591 182.914 17.7841 183.361 18.0341C183.808 18.2803 184.154 18.6477 184.401 19.1364C184.647 19.625 184.77 20.2292 184.77 20.9489V26.5H183.071V21.1534C183.071 20.5208 182.906 20.0265 182.577 19.6705C182.247 19.3106 181.795 19.1307 181.219 19.1307C180.825 19.1307 180.474 19.2159 180.168 19.3864C179.865 19.5568 179.624 19.8068 179.446 20.1364C179.272 20.4621 179.185 20.8561 179.185 21.3182ZM193.175 26.5L190.607 17.7727H192.362L194.072 24.1818H194.158L195.874 17.7727H197.629L199.334 24.1534H199.419L201.118 17.7727H202.874L200.311 26.5H198.578L196.805 20.1989H196.675L194.902 26.5H193.175ZM204.486 26.5V17.7727H206.185V26.5H204.486ZM205.344 16.4261C205.048 16.4261 204.795 16.3277 204.582 16.1307C204.374 15.9299 204.27 15.6913 204.27 15.4148C204.27 15.1345 204.374 14.8958 204.582 14.6989C204.795 14.4981 205.048 14.3977 205.344 14.3977C205.639 14.3977 205.891 14.4981 206.099 14.6989C206.312 14.8958 206.418 15.1345 206.418 15.4148C206.418 15.6913 206.312 15.9299 206.099 16.1307C205.891 16.3277 205.639 16.4261 205.344 16.4261ZM212.544 17.7727V19.1364H207.777V17.7727H212.544ZM209.055 15.6818H210.754V23.9375C210.754 24.267 210.804 24.5152 210.902 24.6818C211 24.8447 211.127 24.9564 211.283 25.017C211.442 25.0739 211.614 25.1023 211.8 25.1023C211.936 25.1023 212.055 25.0928 212.158 25.0739C212.26 25.0549 212.339 25.0398 212.396 25.0284L212.703 26.4318C212.605 26.4697 212.464 26.5076 212.283 26.5455C212.101 26.5871 211.874 26.6098 211.601 26.6136C211.154 26.6212 210.737 26.5417 210.351 26.375C209.964 26.2083 209.652 25.9508 209.413 25.6023C209.175 25.2538 209.055 24.8163 209.055 24.2898V15.6818ZM216.31 21.3182V26.5H214.611V14.8636H216.287V19.1932H216.395C216.599 18.7235 216.912 18.3504 217.332 18.0739C217.753 17.7973 218.302 17.6591 218.98 17.6591C219.579 17.6591 220.101 17.7822 220.548 18.0284C220.999 18.2746 221.348 18.642 221.594 19.1307C221.844 19.6155 221.969 20.2216 221.969 20.9489V26.5H220.27V21.1534C220.27 20.5133 220.105 20.017 219.776 19.6648C219.446 19.3087 218.988 19.1307 218.401 19.1307C217.999 19.1307 217.639 19.2159 217.321 19.3864C217.007 19.5568 216.759 19.8068 216.577 20.1364C216.399 20.4621 216.31 20.8561 216.31 21.3182ZM228.607 26.5V14.8636H235.902V16.375H230.362V19.9205H235.521V21.4261H230.362V24.9886H235.97V26.5H228.607ZM238.111 26.5V17.7727H239.741V19.1932H239.849C240.031 18.7121 240.329 18.3371 240.741 18.0682C241.154 17.7955 241.649 17.6591 242.224 17.6591C242.808 17.6591 243.296 17.7955 243.69 18.0682C244.088 18.3409 244.382 18.7159 244.571 19.1932H244.662C244.87 18.7273 245.202 18.3561 245.656 18.0795C246.111 17.7992 246.652 17.6591 247.281 17.6591C248.073 17.6591 248.719 17.9072 249.219 18.4034C249.723 18.8996 249.974 19.6477 249.974 20.6477V26.5H248.276V20.8068C248.276 20.2159 248.115 19.7879 247.793 19.5227C247.471 19.2576 247.086 19.125 246.639 19.125C246.086 19.125 245.656 19.2955 245.349 19.6364C245.043 19.9735 244.889 20.4072 244.889 20.9375V26.5H243.196V20.6989C243.196 20.2254 243.048 19.8447 242.753 19.5568C242.457 19.2689 242.073 19.125 241.599 19.125C241.277 19.125 240.98 19.2102 240.707 19.3807C240.438 19.5473 240.221 19.7803 240.054 20.0795C239.891 20.3788 239.81 20.7254 239.81 21.1193V26.5H238.111ZM254.791 26.6932C254.238 26.6932 253.738 26.5909 253.291 26.3864C252.844 26.178 252.49 25.8769 252.229 25.483C251.971 25.089 251.842 24.6061 251.842 24.0341C251.842 23.5417 251.937 23.1364 252.126 22.8182C252.316 22.5 252.571 22.2481 252.893 22.0625C253.215 21.8769 253.575 21.7367 253.973 21.642C254.371 21.5473 254.776 21.4754 255.189 21.4261C255.712 21.3655 256.136 21.3163 256.462 21.2784C256.787 21.2367 257.024 21.1705 257.172 21.0795C257.32 20.9886 257.393 20.8409 257.393 20.6364V20.5966C257.393 20.1004 257.253 19.7159 256.973 19.4432C256.696 19.1705 256.284 19.0341 255.734 19.0341C255.162 19.0341 254.712 19.161 254.382 19.4148C254.056 19.6648 253.831 19.9432 253.706 20.25L252.109 19.8864C252.299 19.3561 252.575 18.928 252.939 18.6023C253.306 18.2727 253.729 18.0341 254.206 17.8864C254.683 17.7348 255.185 17.6591 255.712 17.6591C256.06 17.6591 256.429 17.7008 256.82 17.7841C257.214 17.8636 257.581 18.0114 257.922 18.2273C258.267 18.4432 258.549 18.7519 258.768 19.1534C258.988 19.5511 259.098 20.0682 259.098 20.7045V26.5H257.439V25.3068H257.371C257.261 25.5265 257.096 25.7424 256.876 25.9545C256.657 26.1667 256.375 26.3428 256.03 26.483C255.685 26.6231 255.272 26.6932 254.791 26.6932ZM255.161 25.3295C255.63 25.3295 256.032 25.2367 256.365 25.0511C256.702 24.8655 256.958 24.6231 257.132 24.3239C257.31 24.0208 257.399 23.697 257.399 23.3523V22.2273C257.339 22.2879 257.221 22.3447 257.047 22.3977C256.876 22.447 256.681 22.4905 256.462 22.5284C256.242 22.5625 256.028 22.5947 255.82 22.625C255.611 22.6515 255.437 22.6742 255.297 22.6932C254.967 22.7348 254.666 22.8049 254.393 22.9034C254.125 23.0019 253.909 23.1439 253.746 23.3295C253.587 23.5114 253.507 23.7538 253.507 24.0568C253.507 24.4773 253.662 24.7955 253.973 25.0114C254.284 25.2235 254.679 25.3295 255.161 25.3295ZM261.361 26.5V17.7727H263.06V26.5H261.361ZM262.219 16.4261C261.923 16.4261 261.67 16.3277 261.457 16.1307C261.249 15.9299 261.145 15.6913 261.145 15.4148C261.145 15.1345 261.249 14.8958 261.457 14.6989C261.67 14.4981 261.923 14.3977 262.219 14.3977C262.514 14.3977 262.766 14.4981 262.974 14.6989C263.187 14.8958 263.293 15.1345 263.293 15.4148C263.293 15.6913 263.187 15.9299 262.974 16.1307C262.766 16.3277 262.514 16.4261 262.219 16.4261ZM267.044 14.8636V26.5H265.345V14.8636H267.044Z" fill="#6B7280"/>
</svg>