<svg width="10" height="10" viewBox="0 0 10 10" fill="none" xmlns="http://www.w3.org/2000/svg">
<g clip-path="url(#clip0_1434_68)">
<path d="M0.961613 1.95834L2.71131 3.1248L4.45558 0.682817C4.58933 0.495562 4.84958 0.452192 5.03683 0.585942C5.07425 0.612667 5.10696 0.6454 5.13371 0.682817L6.878 3.1248L8.62767 1.95834C8.81917 1.83069 9.07783 1.88243 9.2055 2.0739C9.26037 2.15624 9.28417 2.25543 9.27262 2.35371L8.58796 8.17348C8.56325 8.38331 8.38542 8.54148 8.17412 8.54148H1.41517C1.20388 8.54148 1.02604 8.38331 1.00135 8.17348L0.316676 2.35371C0.289788 2.12517 0.453263 1.9181 0.681805 1.89121C0.780088 1.87965 0.879276 1.90345 0.961613 1.95834ZM4.79467 6.04148C5.25487 6.04148 5.628 5.6684 5.628 5.20815C5.628 4.7479 5.25487 4.37481 4.79467 4.37481C4.33442 4.37481 3.96133 4.7479 3.96133 5.20815C3.96133 5.6684 4.33442 6.04148 4.79467 6.04148Z" fill="#E5C391"/>
</g>
<defs>
<clipPath id="clip0_1434_68">
<rect width="10" height="10" fill="white" transform="translate(-0.208344 -0.208496)"/>
</clipPath>
</defs>
</svg>
