<svg width="24" height="23" viewBox="0 0 24 23" fill="none" xmlns="http://www.w3.org/2000/svg">
<rect width="22.75" height="22" rx="11" transform="matrix(1 0 0 -1 0.619629 22.1899)" fill="#50CD89"/>
<path d="M10.7368 15.5845L17.2368 9.08447C17.3084 8.99854 17.3693 8.90186 17.4194 8.79443C17.4696 8.68701 17.4946 8.56885 17.4946 8.43994C17.4946 8.18213 17.4051 7.9637 17.2261 7.78467C17.047 7.60563 16.8286 7.51611 16.5708 7.51611C16.4419 7.51611 16.3237 7.54118 16.2163 7.59131C16.1089 7.64144 16.0122 7.70947 15.9263 7.79541L10.0708 13.6509L8.06299 11.6216C7.97705 11.5356 7.88037 11.4676 7.77295 11.4175C7.66553 11.3674 7.54736 11.3423 7.41846 11.3423C7.16064 11.3423 6.94222 11.4354 6.76318 11.6216C6.58415 11.8078 6.49463 12.0226 6.49463 12.2661C6.49463 12.395 6.51969 12.5168 6.56982 12.6313C6.61995 12.7459 6.68083 12.8462 6.75244 12.9321L9.42627 15.5845C9.51221 15.6704 9.60889 15.7384 9.71631 15.7886C9.82373 15.8387 9.94189 15.8638 10.0708 15.8638C10.1997 15.8638 10.3215 15.8387 10.436 15.7886C10.5506 15.7384 10.6509 15.6704 10.7368 15.5845Z" fill="white"/>
</svg>
