<svg width="13" height="14" viewBox="0 0 13 14" fill="none" xmlns="http://www.w3.org/2000/svg">
<path d="M2.64062 5.8125C2.9707 5.8125 3.25 6.0918 3.25 6.42188V12.5156C3.25 12.8711 2.9707 13.125 2.64062 13.125H0.609375C0.253906 13.125 0 12.8711 0 12.5156V6.42188C0 6.0918 0.253906 5.8125 0.609375 5.8125H2.64062ZM1.625 12.1094C1.95508 12.1094 2.23438 11.8555 2.23438 11.5C2.23438 11.1699 1.95508 10.8906 1.625 10.8906C1.26953 10.8906 1.01562 11.1699 1.01562 11.5C1.01562 11.8555 1.26953 12.1094 1.625 12.1094ZM9.75 2.20703C9.75 3.27344 9.08984 3.88281 8.88672 4.59375H11.4766C12.3145 4.59375 12.9746 5.30469 12.9746 6.0918C13 6.54883 12.7969 7.03125 12.4922 7.33594C12.7461 7.91992 12.6953 8.75781 12.2637 9.3418C12.4668 10.002 12.2637 10.8145 11.832 11.2461C11.959 11.7031 11.9082 12.084 11.6797 12.3887C11.1719 13.125 9.87695 13.125 8.78516 13.125H8.70898C7.49023 13.125 6.5 12.6934 5.6875 12.3379C5.28125 12.1602 4.74805 11.9316 4.3418 11.9316C4.18945 11.9062 4.0625 11.7793 4.0625 11.627V6.19336C4.0625 6.11719 4.08789 6.04102 4.13867 5.96484C5.1543 4.97461 5.58594 3.93359 6.39844 3.0957C6.7793 2.71484 6.90625 2.15625 7.05859 1.59766C7.16016 1.14062 7.38867 0.125 7.92188 0.125C8.53125 0.125 9.75 0.328125 9.75 2.20703Z" fill="black"/>
</svg>
